<?xml version="1.0" standalone="no"?>
<!DOCTYPE svg PUBLIC "-//W3C//DTD SVG 20010904//EN"
 "http://www.w3.org/TR/2001/REC-SVG-20010904/DTD/svg10.dtd">
<svg version="1.0" xmlns="http://www.w3.org/2000/svg"
 width="225.000000pt" height="225.000000pt" viewBox="0 0 225.000000 225.000000"
 preserveAspectRatio="xMidYMid meet">

<g transform="translate(0.000000,225.000000) scale(0.100000,-0.100000)"
fill="#000000" stroke="none">
<path d="M1000 1923 c0 -200 -4 -323 -9 -317 -5 5 -80 131 -166 281 l-156 271
-104 -60 c-58 -33 -105 -62 -105 -64 0 -2 72 -129 160 -281 88 -152 159 -278
157 -280 -2 -2 -128 69 -280 157 -152 88 -279 160 -281 160 -2 0 -31 -47 -64
-105 l-60 -104 271 -156 c150 -86 276 -161 281 -166 6 -5 -117 -9 -317 -9
l-327 0 0 -120 0 -120 325 0 c179 0 325 -3 325 -7 0 -5 -126 -80 -279 -169
l-279 -160 60 -105 c33 -57 60 -105 61 -105 1 -1 128 71 282 160 154 90 282
162 283 160 2 -1 -69 -129 -158 -284 -90 -154 -161 -282 -159 -284 2 -2 49
-29 104 -60 93 -54 100 -56 113 -39 7 10 81 137 165 282 l152 263 3 -326 2
-326 120 0 120 0 0 327 c0 276 2 325 14 313 7 -8 82 -134 166 -280 83 -146
153 -267 155 -269 7 -6 205 112 205 122 0 8 -166 300 -318 562 -3 5 12 -1 33
-14 190 -112 524 -301 532 -301 10 0 128 198 122 205 -7 6 -513 297 -536 308
-13 6 -23 14 -23 19 0 4 146 8 325 8 l325 0 0 120 0 120 -326 2 -326 3 277
159 c152 88 278 163 281 167 3 6 -95 188 -112 208 -2 2 -130 -70 -284 -159
-155 -89 -283 -160 -284 -159 -2 2 70 130 160 284 89 154 161 281 161 282 -1
1 -49 28 -106 61 l-105 60 -160 -279 c-89 -153 -164 -279 -168 -279 -5 0 -8
146 -8 325 l0 325 -120 0 -120 0 0 -327z m272 -486 c155 -76 232 -265 173
-426 -28 -77 -107 -160 -186 -196 -126 -56 -277 -28 -374 69 -77 78 -100 132
-100 241 0 77 4 98 26 146 42 88 123 159 219 190 14 5 61 7 106 6 64 -3 93 -9
136 -30z"/>
</g>
</svg>
