<svg version="1.1" id="Layer_1" xmlns="http://www.w3.org/2000/svg" xmlns:xlink="http://www.w3.org/1999/xlink" x="0px" y="0px"
	 width="100%" viewBox="0 0 3264 3264" enable-background="new 0 0 3264 3264" xml:space="preserve">
<path fill="none" opacity="1.000000" stroke="#fefefe" stroke-linecap="round" stroke-linejoin="round" stroke-width="6.000000"
	d="
M3201.000000,1303.000000 
	C3176.066650,1306.684448 3151.861084,1313.961182 3126.997803,1317.985962 
	C3122.873779,1318.653320 3121.402588,1321.049438 3122.000000,1325.000000 
"/>
<path fill="none" opacity="1.000000" stroke="#fefefe" stroke-linecap="round" stroke-linejoin="round" stroke-width="6.000000"
	d="
M155.000000,1954.000000 
	C149.453384,1949.751709 143.598816,1952.444946 138.015961,1953.578613 
	C115.977051,1958.053711 94.000008,1962.833374 72.000008,1967.500000 
"/>
<path fill="none" opacity="1.000000" stroke="#fefefe" stroke-linecap="round" stroke-linejoin="round" stroke-width="6.000000"
	d="
M73.000000,1303.000000 
	C96.666672,1308.000000 120.309433,1313.118652 144.021454,1317.893555 
	C148.427902,1318.780762 150.688812,1320.361938 150.000000,1325.000000 
"/>
<path fill="none" opacity="1.000000" stroke="#fefefe" stroke-linecap="round" stroke-linejoin="round" stroke-width="6.000000"
	d="
M1807.000000,43.000000 
	C1800.239746,45.847538 1802.731812,52.201077 1802.146606,57.017818 
	C1799.478882,78.977188 1797.333374,101.000000 1795.000000,123.000000 
"/>
<path fill="none" opacity="1.000000" stroke="#fefefe" stroke-linecap="round" stroke-linejoin="round" stroke-width="6.000000"
	d="
M3158.000000,2135.000000 
	C3159.097656,2130.021973 3155.705078,2128.665039 3152.001953,2127.493652 
	C3128.331299,2120.006348 3104.666748,2112.500000 3081.000000,2105.000000 
"/>
<path fill="none" opacity="1.000000" stroke="#fefefe" stroke-linecap="round" stroke-linejoin="round" stroke-width="6.000000"
	d="
M3163.000000,1143.000000 
	C3157.542969,1141.354614 3152.402832,1142.093140 3146.963623,1143.889771 
	C3125.344238,1151.030884 3104.017334,1159.085327 3082.000000,1165.000000 
"/>
<path fill="none" opacity="1.000000" stroke="#fefefe" stroke-linecap="round" stroke-linejoin="round" stroke-width="6.000000"
	d="
M3097.000000,2289.000000 
	C3095.968262,2282.710205 3090.061279,2283.078857 3085.987305,2281.025391 
	C3067.602295,2271.757080 3048.065430,2264.951660 3030.022705,2254.958984 
	C3026.199219,2252.841309 3022.666748,2254.663818 3019.000000,2255.000000 
"/>
<path fill="none" opacity="1.000000" stroke="#fefefe" stroke-linecap="round" stroke-linejoin="round" stroke-width="6.000000"
	d="
M191.000000,1169.000000 
	C191.755325,1164.911377 188.433594,1164.813965 185.993576,1164.019775 
	C162.337601,1156.320312 138.666656,1148.666748 114.999992,1141.000000 
"/>
<path fill="none" opacity="1.000000" stroke="#fefefe" stroke-linecap="round" stroke-linejoin="round" stroke-width="6.000000"
	d="
M1469.000000,45.000004 
	C1471.666626,71.000008 1474.333252,97.000008 1477.000000,123.000008 
"/>
<path fill="none" opacity="1.000000" stroke="#fefefe" stroke-linecap="round" stroke-linejoin="round" stroke-width="6.000000"
	d="
M124.000000,1476.000000 
	C98.000000,1473.333252 72.000000,1470.666626 46.000004,1468.000000 
"/>
<path fill="none" opacity="1.000000" stroke="#fefefe" stroke-linecap="round" stroke-linejoin="round" stroke-width="6.000000"
	d="
M3226.000000,1468.000000 
	C3200.000000,1470.666626 3174.000000,1473.333374 3148.000000,1476.000000 
"/>
<path fill="none" opacity="1.000000" stroke="#fefefe" stroke-linecap="round" stroke-linejoin="round" stroke-width="6.000000"
	d="
M124.000000,1794.000000 
	C98.000000,1796.666626 72.000000,1799.333252 45.999996,1802.000000 
"/>
<path fill="none" opacity="1.000000" stroke="#fefefe" stroke-linecap="round" stroke-linejoin="round" stroke-width="6.000000"
	d="
M3226.000000,1801.999878 
	C3200.000000,1799.333252 3174.000000,1796.666626 3148.000000,1793.999878 
"/>
<path fill="none" opacity="1.000000" stroke="#fefefe" stroke-linecap="round" stroke-linejoin="round" stroke-width="6.000000"
	d="
M1795.000000,3147.000000 
	C1797.666748,3173.000000 1800.333374,3199.000000 1803.000000,3225.000000 
"/>
<path fill="none" opacity="1.000000" stroke="#fefefe" stroke-linecap="round" stroke-linejoin="round" stroke-width="6.000000"
	d="
M1477.000000,3147.000000 
	C1474.333252,3173.000000 1471.666626,3199.000000 1469.000000,3225.000000 
"/>
<path fill="none" opacity="1.000000" stroke="#fefefe" stroke-linecap="round" stroke-linejoin="round" stroke-width="6.000000"
	d="
M3123.000000,1951.000122 
	C3148.666748,1956.500122 3174.333252,1962.000122 3200.000000,1967.500122 
"/>
<path fill="none" opacity="1.000000" stroke="#fefefe" stroke-linecap="round" stroke-linejoin="round" stroke-width="6.000000"
	d="
M1303.000000,71.500000 
	C1308.489502,88.659531 1310.589111,106.591377 1314.946655,124.013351 
	C1316.927856,131.934662 1318.333374,139.999985 1320.000000,147.999985 
"/>
<path fill="none" opacity="1.000000" stroke="#fefefe" stroke-linecap="round" stroke-linejoin="round" stroke-width="6.000000"
	d="
M1142.500000,116.000000 
	C1150.000000,138.666672 1157.592651,161.303650 1164.877930,184.039093 
	C1165.747070,186.751328 1167.569458,190.000000 1165.000000,193.000000 
"/>
<path fill="none" opacity="1.000000" stroke="#fefefe" stroke-linecap="round" stroke-linejoin="round" stroke-width="6.000000"
	d="
M1969.000000,71.000000 
	C1963.333374,96.666664 1957.666626,122.333336 1952.000000,148.000000 
"/>
<path fill="none" opacity="1.000000" stroke="#fefefe" stroke-linecap="round" stroke-linejoin="round" stroke-width="6.000000"
	d="
M190.999985,2105.000000 
	C165.666641,2113.000000 140.333313,2121.000000 114.999977,2129.000000 
"/>
<path fill="none" opacity="1.000000" stroke="#fefefe" stroke-linecap="round" stroke-linejoin="round" stroke-width="6.000000"
	d="
M1953.000000,3119.000000 
	C1951.862671,3128.046875 1955.387573,3136.419189 1957.164673,3144.965820 
	C1960.917480,3163.012939 1963.901001,3181.244141 1969.000000,3199.000000 
"/>
<path fill="none" opacity="1.000000" stroke="#fefefe" stroke-linecap="round" stroke-linejoin="round" stroke-width="6.000000"
	d="
M1319.000000,3119.000000 
	C1320.667480,3131.216797 1315.284180,3142.332520 1313.333130,3153.971924 
	C1310.855347,3168.754150 1307.166626,3183.333252 1303.999878,3198.000000 
"/>
<path fill="none" opacity="1.000000" stroke="#fefefe" stroke-linecap="round" stroke-linejoin="round" stroke-width="6.000000"
	d="
M987.000000,171.000000 
	C984.212646,173.333328 986.389160,176.156143 987.168701,177.925674 
	C996.911072,200.039169 1007.164490,221.928589 1016.784058,244.093689 
	C1017.939880,246.756760 1019.027893,246.851700 1021.000000,247.000000 
"/>
<path fill="none" opacity="1.000000" stroke="#fefefe" stroke-linecap="round" stroke-linejoin="round" stroke-width="6.000000"
	d="
M2129.500000,115.999962 
	C2122.000000,139.333298 2114.441650,162.648285 2107.107910,186.033783 
	C2106.498291,187.977509 2105.843262,189.056137 2104.000000,189.500000 
"/>
<path fill="none" opacity="1.000000" stroke="#fefefe" stroke-linecap="round" stroke-linejoin="round" stroke-width="6.000000"
	d="
M2106.499756,3082.000000 
	C2114.333252,3106.333496 2122.166504,3130.666748 2129.999756,3155.000000 
"/>
<path fill="none" opacity="1.000000" stroke="#fefefe" stroke-linecap="round" stroke-linejoin="round" stroke-width="6.000000"
	d="
M1164.000000,3075.000000 
	C1167.491211,3082.082520 1164.025513,3088.536377 1161.942383,3094.981445 
	C1156.107422,3113.034668 1150.098755,3131.034180 1143.913208,3148.969971 
	C1142.741333,3152.368164 1142.181885,3155.551514 1143.000000,3159.000000 
"/>
<path fill="none" opacity="1.000000" stroke="#fefefe" stroke-linecap="round" stroke-linejoin="round" stroke-width="6.000000"
	d="
M176.000000,985.000000 
	C200.000000,995.666687 224.000000,1006.333313 248.000000,1017.000000 
"/>
<path fill="none" opacity="1.000000" stroke="#fefefe" stroke-linecap="round" stroke-linejoin="round" stroke-width="6.000000"
	d="
M3096.000000,984.999878 
	C3072.333252,995.666504 3048.666504,1006.333191 3025.000000,1016.999878 
"/>
<path fill="none" opacity="1.000000" stroke="#fefefe" stroke-linecap="round" stroke-linejoin="round" stroke-width="6.000000"
	d="
M251.000000,2255.000000 
	C246.759216,2252.509033 243.546219,2255.351074 239.983978,2256.964600 
	C220.684525,2265.706055 201.446152,2274.604248 181.896515,2282.751709 
	C178.348969,2284.229980 176.160187,2285.631348 175.000000,2289.000000 
"/>
<path fill="none" opacity="1.000000" stroke="#fefefe" stroke-linecap="round" stroke-linejoin="round" stroke-width="6.000000"
	d="
M2285.000000,171.000000 
	C2287.324951,174.931671 2284.600830,177.695221 2283.105469,181.047012 
	C2274.225098,200.951630 2265.556641,220.953796 2257.114746,241.048218 
	C2255.791016,244.198822 2254.142334,246.142303 2251.000000,247.000000 
"/>
<path fill="none" opacity="1.000000" stroke="#fefefe" stroke-linecap="round" stroke-linejoin="round" stroke-width="6.000000"
	d="
M2255.000000,3021.000000 
	C2256.892090,3034.893311 2265.324463,3046.197266 2270.152832,3058.942139 
	C2274.424561,3070.218018 2280.175293,3080.927002 2284.823486,3092.073730 
	C2285.578369,3093.883301 2287.787354,3096.666748 2285.000000,3099.000000 
"/>
<path fill="none" opacity="1.000000" stroke="#fefefe" stroke-linecap="round" stroke-linejoin="round" stroke-width="6.000000"
	d="
M1017.000000,3021.000000 
	C1018.137451,3029.299072 1012.400696,3035.162842 1009.448792,3041.977783 
	C1001.767456,3059.710449 993.833374,3077.333252 986.000061,3095.000000 
"/>
<path fill="none" opacity="1.000000" stroke="#fefefe" stroke-linecap="round" stroke-linejoin="round" stroke-width="6.000000"
	d="
M2531.000000,2866.000000 
	C2546.000000,2887.000000 2560.986816,2908.009521 2576.082764,2928.940430 
	C2576.424805,2929.414795 2578.000000,2929.000000 2579.000000,2929.000000 
"/>
<path fill="none" opacity="1.000000" stroke="#fefefe" stroke-linecap="round" stroke-linejoin="round" stroke-width="6.000000"
	d="
M2863.000000,2529.000000 
	C2877.700439,2534.242188 2888.073975,2546.054688 2900.980957,2554.031006 
	C2911.834473,2560.737793 2920.418701,2570.917725 2933.000000,2575.000000 
"/>
<path fill="none" opacity="1.000000" stroke="#fefefe" stroke-linecap="round" stroke-linejoin="round" stroke-width="6.000000"
	d="
M741.000000,2866.000000 
	C727.486389,2887.484863 711.431763,2907.166748 697.011658,2928.008057 
	C695.916931,2929.590576 694.366333,2928.798584 693.000000,2929.000000 
"/>
<path fill="none" opacity="1.000000" stroke="#fefefe" stroke-linecap="round" stroke-linejoin="round" stroke-width="6.000000"
	d="
M2930.000000,689.000000 
	C2930.043213,693.559265 2928.760254,696.238281 2924.217285,699.320190 
	C2905.695557,711.884705 2887.901855,725.538452 2870.112061,739.146667 
	C2867.623291,741.050415 2865.463379,740.788696 2863.000000,741.000000 
"/>
<path fill="none" opacity="1.000000" stroke="#fefefe" stroke-linecap="round" stroke-linejoin="round" stroke-width="6.000000"
	d="
M342.000000,689.000000 
	C343.207458,700.536255 353.839844,703.484863 361.176575,708.754150 
	C375.361511,718.942078 388.712738,730.377319 404.027618,738.950684 
	C406.623749,740.404053 405.119415,743.440308 407.000000,745.000000 
"/>
<path fill="none" opacity="1.000000" stroke="#fefefe" stroke-linecap="round" stroke-linejoin="round" stroke-width="6.000000"
	d="
M2575.000000,335.000000 
	C2577.473877,345.814392 2568.614258,351.919281 2563.637939,358.735687 
	C2552.399658,374.128845 2541.610352,389.871399 2530.000000,405.000000 
"/>
<path fill="none" opacity="1.000000" stroke="#fefefe" stroke-linecap="round" stroke-linejoin="round" stroke-width="6.000000"
	d="
M693.000000,341.000000 
	C699.703796,342.837555 701.411316,349.310883 704.974121,354.019562 
	C717.648621,370.770050 730.244324,387.580933 742.000000,405.000000 
"/>
<path fill="none" opacity="1.000000" stroke="#fefefe" stroke-linecap="round" stroke-linejoin="round" stroke-width="6.000000"
	d="
M405.000000,2530.000000 
	C384.333344,2545.000000 363.666656,2560.000000 343.000000,2575.000000 
"/>
<path fill="none" opacity="1.000000" stroke="#fefefe" stroke-linecap="round" stroke-linejoin="round" stroke-width="6.000000"
	d="
M563.000000,447.000000 
	C569.373108,447.681610 572.367126,453.084747 575.860229,457.120972 
	C586.989746,469.981110 597.883362,483.034424 610.001343,494.998627 
	C614.049072,498.994934 617.909546,503.105743 619.000000,509.000000 
"/>
<path fill="none" opacity="1.000000" stroke="#fefefe" stroke-linecap="round" stroke-linejoin="round" stroke-width="6.000000"
	d="
M445.000000,565.000000 
	C453.442108,566.804749 457.874390,574.370544 463.679016,579.372498 
	C477.957886,591.676758 491.427185,604.968079 506.022766,616.972351 
	C507.496796,618.184692 506.798615,619.633667 507.000000,621.000000 
"/>
<path fill="none" opacity="1.000000" stroke="#fefefe" stroke-linecap="round" stroke-linejoin="round" stroke-width="6.000000"
	d="
M617.000000,2766.000000 
	C612.031677,2776.040039 602.639160,2782.367920 595.627869,2790.686279 
	C586.258911,2801.802246 577.043152,2813.311279 566.000000,2823.000000 
"/>
<path fill="none" opacity="1.000000" stroke="#fefefe" stroke-linecap="round" stroke-linejoin="round" stroke-width="6.000000"
	d="
M2823.000000,566.000000 
	C2804.413818,583.462463 2785.706299,600.789368 2766.000000,617.000000 
"/>
<path fill="none" opacity="1.000000" stroke="#fefefe" stroke-linecap="round" stroke-linejoin="round" stroke-width="6.000000"
	d="
M504.999908,2654.000000 
	C485.999908,2671.000000 466.999908,2688.000000 447.999908,2705.000000 
"/>
<path fill="none" opacity="1.000000" stroke="#fefefe" stroke-linecap="round" stroke-linejoin="round" stroke-width="6.000000"
	d="
M2767.000000,2654.000000 
	C2777.596924,2660.525879 2785.478027,2670.247314 2794.707764,2678.333496 
	C2804.602051,2687.001709 2815.138672,2695.135010 2824.000000,2705.000000 
"/>
<path fill="none" opacity="1.000000" stroke="#fefefe" stroke-linecap="round" stroke-linejoin="round" stroke-width="6.000000"
	d="
M2655.000000,2766.000000 
	C2661.525879,2776.596924 2671.247070,2784.478027 2679.333252,2793.708008 
	C2688.001465,2803.602295 2696.135010,2814.138672 2706.000000,2823.000000 
"/>
<path fill="none" opacity="1.000000" stroke="#fefefe" stroke-linecap="round" stroke-linejoin="round" stroke-width="6.000000"
	d="
M2705.000000,448.000061 
	C2688.000000,467.000061 2671.000000,486.000061 2654.000000,505.000061 
"/>
</svg>