<svg version="1.0" xmlns="http://www.w3.org/2000/svg" viewBox="0 0 3264.000000 3264.000000" preserveAspectRatio="xMidYMid meet"><g transform="translate(0.000000,3264.000000) scale(0.100000,-0.100000)" fill="#fefefe" stroke="none"><path d="M16441 32569 c-134 -21 -274 -95 -343 -183 -53 -67 -73 -108 -92
-193 -29 -129 -15 -239 44 -348 16 -30 26 -56 21 -59 -4 -3 -66 2 -137 10 -71
9 -176 21 -234 27 l-105 12 -5 335 -5 335 -102 3 -103 3 0 -435 0 -436 23 -5
c12 -2 72 -9 132 -15 61 -5 173 -17 250 -25 499 -53 547 -57 556 -48 6 6 13
51 16 100 l6 90 -27 7 c-40 10 -101 77 -120 131 -25 76 -22 217 8 280 28 61
90 119 165 153 51 24 67 26 191 27 149 0 196 -11 278 -68 90 -60 136 -187 112
-303 -28 -134 -99 -204 -235 -229 l-60 -11 -3 -95 c-3 -120 -1 -123 96 -109
163 23 261 92 331 234 81 165 81 388 0 552 -57 114 -184 212 -326 249 -74 20
-249 27 -332 14z"/>
<path d="M15381 30728 c0 -18 4 -67 9 -108 4 -41 16 -144 24 -228 9 -84 20
-169 24 -190 l8 -37 79 0 80 0 0 175 0 175 760 5 760 5 0 115 0 115 -872 3
-873 2 1 -32z"/>
<path d="M23800 30652 c-122 -8 -247 -68 -329 -157 -103 -114 -155 -241 -155
-380 0 -155 57 -277 186 -401 80 -76 135 -113 383 -256 238 -137 307 -173 400
-205 85 -30 241 -41 327 -24 173 36 320 179 388 376 65 189 14 373 -149 536
-90 89 -134 120 -386 266 -235 136 -330 184 -420 213 -72 22 -183 37 -245 32z
m115 -226 c28 -8 72 -23 98 -35 67 -29 559 -314 634 -367 168 -120 225 -271
154 -419 -33 -71 -99 -135 -164 -160 -69 -26 -179 -17 -280 23 -74 30 -476
256 -621 349 -128 83 -203 174 -226 278 -27 121 77 299 196 335 45 13 154 11
209 -4z"/>
<path d="M8600 30624 c-53 -10 -158 -48 -225 -82 -104 -51 -460 -258 -540
-313 -208 -143 -315 -329 -302 -524 6 -94 26 -153 79 -246 84 -146 213 -236
373 -259 68 -10 95 -10 175 4 127 22 221 64 490 219 287 165 329 194 421 287
125 126 177 255 166 415 -13 195 -133 374 -307 458 -82 40 -88 41 -195 43 -60
1 -121 0 -135 -2z m297 -240 c96 -60 161 -184 150 -289 -10 -96 -66 -180 -175
-262 -71 -54 -559 -339 -640 -374 -249 -109 -434 -43 -498 176 -30 105 1 201
96 296 72 72 98 89 400 264 356 206 408 227 542 222 65 -3 85 -8 125 -33z"/>
<path d="M9463 29607 c-40 -23 -73 -46 -73 -51 0 -9 50 -98 165 -296 233 -400
248 -430 228 -430 -5 0 -87 18 -183 39 -96 22 -267 60 -380 86 -492 110 -691
91 -867 -81 -204 -200 -176 -519 66 -764 156 -158 377 -201 570 -110 34 16 61
32 61 35 0 4 -24 47 -52 96 -59 101 -50 97 -153 59 -46 -17 -75 -21 -125 -18
-81 5 -129 28 -189 89 -70 71 -103 138 -109 221 -4 62 -2 74 27 133 59 119
173 186 328 193 126 6 188 -4 721 -118 l464 -99 46 23 c26 13 57 32 70 42 26
22 33 4 -83 204 -43 74 -137 239 -210 365 -225 392 -236 410 -243 417 -4 4
-40 -12 -79 -35z"/>
<path d="M22755 29248 c-7 -18 -59 -136 -114 -262 -56 -126 -101 -234 -101
-240 0 -7 30 -29 67 -50 79 -46 63 -58 165 127 39 71 76 131 83 133 7 3 151
-75 321 -174 980 -567 994 -575 1008 -556 25 33 101 182 96 187 -3 3 -135 80
-295 172 -159 92 -335 193 -390 225 -329 191 -815 470 -820 470 -3 0 -12 -15
-20 -32z"/>
<path d="M29510 24929 c-201 -116 -369 -214 -373 -218 -4 -5 58 -156 139 -337
81 -181 168 -376 193 -434 29 -64 53 -106 63 -108 9 -2 51 13 92 32 l76 35 0
48 c0 26 5 65 10 85 14 50 86 118 173 164 62 33 81 38 138 38 134 0 262 -97
339 -256 110 -226 50 -410 -159 -489 -112 -42 -228 -10 -307 86 -20 25 -40 45
-44 45 -4 0 -44 -21 -89 -46 -51 -29 -81 -52 -81 -63 0 -28 92 -133 150 -173
59 -40 156 -68 233 -68 108 0 260 59 373 144 258 193 272 515 36 825 -110 145
-250 221 -406 221 -175 0 -347 -97 -429 -242 -12 -21 -25 -38 -29 -38 -11 0
-26 31 -117 244 -45 104 -80 194 -78 200 3 6 129 83 282 171 153 88 279 165
282 171 4 11 -85 174 -96 174 -3 0 -170 -95 -371 -211z"/>
<path d="M2708 24937 c-231 -79 -427 -369 -428 -632 0 -142 47 -253 146 -344
98 -90 224 -141 347 -141 29 0 38 -4 35 -15 -2 -8 -65 -98 -141 -200 -96 -129
-143 -185 -153 -181 -8 3 -90 49 -182 102 -341 198 -370 214 -384 214 -17 0
-112 -160 -101 -170 4 -5 174 -104 377 -221 l368 -212 19 24 c20 26 449 616
511 702 20 29 37 55 38 59 0 9 -137 108 -151 108 -6 0 -31 -12 -56 -27 -68
-40 -137 -37 -233 10 -84 40 -147 95 -175 153 -30 60 -32 183 -6 262 42 125
143 251 242 303 66 35 175 33 249 -3 62 -31 132 -93 156 -141 28 -52 30 -162
5 -225 -12 -29 -21 -54 -21 -56 0 -8 160 -96 174 -96 16 0 57 80 75 145 29
106 0 245 -73 342 -58 78 -97 113 -186 168 -153 93 -313 119 -452 72z"/>
<path d="M3792 24363 c-24 -41 -41 -78 -37 -81 4 -4 162 -97 352 -207 191
-110 348 -206 350 -212 3 -7 -16 -18 -44 -26 -332 -101 -740 -235 -813 -267
-237 -102 -358 -222 -405 -400 -30 -114 -12 -251 48 -352 36 -61 141 -158 218
-200 113 -64 210 -91 319 -90 170 0 307 70 401 204 l42 61 -24 18 c-13 10 -57
35 -97 56 l-73 38 -20 -25 c-66 -85 -85 -102 -144 -131 -59 -29 -71 -31 -138
-27 -130 8 -265 95 -303 194 -11 30 -15 65 -13 116 8 146 93 259 257 341 85
42 192 79 921 315 l144 47 38 60 c21 33 38 65 38 71 1 9 -832 499 -954 562
-18 9 -25 3 -63 -65z"/>
<path d="M28440 24290 c-223 -41 -411 -216 -451 -419 -25 -131 13 -324 92
-469 271 -492 371 -635 507 -725 99 -66 177 -91 287 -91 108 1 186 25 291 89
201 125 288 324 239 552 -30 145 -56 199 -235 508 -143 247 -193 318 -274 398
-129 124 -306 185 -456 157z m178 -221 c74 -36 157 -124 221 -230 92 -154 270
-467 298 -524 72 -144 88 -277 44 -368 -69 -141 -263 -208 -403 -137 -60 30
-136 105 -193 190 -59 89 -302 511 -336 585 -85 182 -75 333 30 428 70 63 124
85 217 86 49 1 73 -5 122 -30z"/>
<path d="M30506 17204 c-231 -56 -377 -256 -405 -556 -14 -145 -14 -511 -1
-653 18 -190 66 -308 167 -416 126 -133 313 -186 514 -144 210 44 352 204 404
451 36 172 29 767 -10 914 -41 155 -146 296 -266 360 -107 57 -274 75 -403 44z
m217 -178 c110 -26 182 -101 223 -231 17 -55 19 -96 19 -475 0 -379 -2 -420
-19 -475 -44 -139 -117 -212 -237 -235 -119 -23 -241 26 -303 123 -67 105 -69
120 -74 540 -2 240 0 403 7 447 28 180 109 283 244 310 61 12 76 11 140 -4z"/>
<path d="M31897 17204 c-216 -52 -353 -214 -401 -475 -13 -67 -16 -156 -16
-409 0 -353 8 -436 57 -560 69 -176 198 -288 372 -325 196 -41 374 7 502 134
74 75 116 152 151 276 22 77 23 97 23 475 0 374 -1 399 -22 471 -46 163 -133
289 -245 356 -108 65 -287 90 -421 57z m245 -186 c53 -16 131 -87 159 -145 46
-96 51 -140 56 -487 6 -440 -7 -548 -80 -659 -98 -148 -339 -165 -455 -32 -41
46 -66 96 -89 176 -16 57 -18 108 -18 444 0 286 3 395 14 440 51 223 209 324
413 263z"/>
<path d="M463 17185 c-152 -41 -276 -156 -336 -309 -49 -126 -56 -198 -56
-571 -1 -390 8 -463 70 -594 61 -132 168 -232 294 -276 64 -22 242 -31 316
-16 219 46 370 225 414 492 21 132 21 656 0 788 -42 260 -180 431 -392 486
-72 19 -240 19 -310 0z m307 -202 c73 -40 123 -114 152 -218 20 -75 21 -103
22 -445 1 -276 -2 -382 -13 -435 -27 -133 -77 -213 -162 -260 -49 -27 -62 -30
-144 -29 -73 0 -99 4 -137 23 -80 39 -140 124 -169 241 -20 80 -20 811 0 890
37 143 104 226 211 261 14 5 61 7 106 6 68 -3 89 -8 134 -34z"/>
<path d="M1860 17184 c-194 -51 -336 -195 -370 -373 -42 -224 39 -421 206
-498 30 -13 54 -26 54 -28 0 -3 -26 -22 -59 -44 -168 -114 -229 -324 -156
-531 51 -144 163 -241 330 -285 77 -20 252 -20 330 0 198 51 338 192 367 371
16 95 17 95 -108 92 l-107 -3 -13 -61 c-31 -155 -158 -244 -329 -231 -111 9
-171 41 -220 117 -60 95 -60 274 0 370 55 86 99 103 295 110 l155 5 0 85 0 85
-145 6 c-155 7 -185 12 -240 40 -74 37 -113 100 -131 208 -21 125 11 250 82
319 62 60 111 76 234 77 100 0 115 -3 161 -27 86 -45 139 -120 153 -218 l6
-45 113 -3 112 -3 0 50 c0 105 -55 220 -143 301 -42 39 -156 96 -232 115 -76
19 -270 19 -345 -1z"/>
<path d="M3652 10146 c-70 -18 -186 -76 -258 -129 -175 -129 -258 -334 -209
-520 37 -141 132 -269 246 -332 47 -25 67 -30 152 -33 53 -3 97 -8 97 -13 0
-6 -11 -31 -24 -57 -48 -95 -57 -189 -27 -295 32 -117 139 -248 242 -299 150
-72 309 -59 488 40 252 141 364 401 266 620 -15 34 -31 62 -35 62 -13 0 -168
-91 -180 -105 -8 -10 -7 -22 5 -46 27 -50 31 -137 10 -200 -35 -105 -172 -205
-295 -216 -113 -11 -209 60 -277 203 -27 57 -35 87 -35 131 -1 112 49 173 217
269 58 32 105 65 105 73 0 21 -72 141 -85 141 -6 0 -51 -23 -100 -52 -128 -74
-190 -97 -256 -98 -110 0 -203 75 -273 220 -40 84 -44 190 -8 257 65 123 249
219 368 193 68 -16 117 -44 162 -95 22 -25 44 -45 50 -45 16 0 182 99 182 108
0 20 -76 116 -113 144 -86 63 -142 81 -257 85 -64 1 -125 -3 -158 -11z"/>
<path d="M28615 9868 c-48 -68 -105 -145 -125 -173 -160 -216 -334 -461 -337
-475 -3 -12 16 -33 67 -69 l71 -52 64 32 c57 28 72 31 118 26 66 -8 181 -65
230 -113 106 -106 113 -266 19 -434 -78 -141 -200 -233 -312 -234 -155 -1
-300 119 -317 262 -4 38 0 68 17 121 13 39 22 72 19 75 -11 9 -167 96 -173 96
-15 0 -68 -132 -77 -193 -27 -173 78 -356 267 -469 118 -69 190 -91 304 -92
109 0 177 21 270 84 137 93 256 282 296 468 24 113 11 215 -42 320 -77 151
-252 262 -415 262 -32 0 -61 5 -64 10 -6 9 36 68 224 318 40 54 60 72 73 69
10 -3 139 -75 287 -161 148 -86 274 -156 279 -156 10 0 102 151 102 167 0 5
-55 41 -122 79 -68 39 -234 135 -369 212 -135 78 -250 142 -256 142 -5 0 -49
-55 -98 -122z"/>
<path d="M2455 9440 c-70 -13 -129 -35 -201 -75 -199 -112 -294 -257 -295
-450 0 -101 13 -157 62 -263 142 -307 397 -453 656 -373 50 15 148 70 191 107
22 18 57 60 78 94 22 33 43 59 47 57 12 -4 199 -436 193 -445 -3 -4 -129 -80
-282 -168 -152 -87 -278 -164 -281 -171 -5 -13 71 -158 88 -168 8 -6 96 42
419 230 63 37 163 94 223 128 59 33 107 67 107 74 0 12 -56 140 -332 761 -31
68 -56 112 -65 112 -8 0 -48 -15 -89 -34 l-74 -35 0 -43 c0 -107 -58 -188
-183 -254 -63 -33 -81 -38 -142 -39 -119 0 -220 64 -305 197 -111 171 -118
346 -18 454 76 82 213 130 304 105 53 -14 123 -62 154 -106 14 -19 30 -35 37
-35 19 0 173 93 173 105 0 19 -86 124 -130 159 -84 67 -217 97 -335 76z"/>
<path d="M29773 9117 c-73 -100 -197 -272 -277 -382 -80 -110 -145 -207 -143
-215 1 -8 33 -37 71 -64 l68 -50 51 29 c74 41 147 40 242 -5 130 -62 205 -166
205 -284 0 -125 -87 -298 -196 -389 -98 -82 -211 -96 -326 -39 -109 54 -178
151 -178 254 0 21 9 65 21 98 11 33 18 64 14 69 -8 15 -150 91 -168 91 -20 0
-73 -129 -81 -200 -21 -178 101 -368 304 -474 225 -118 429 -98 599 60 76 70
120 130 170 230 94 190 103 351 30 502 -75 154 -265 272 -437 272 -46 0 -53 2
-48 17 10 25 279 383 288 383 5 0 130 -70 279 -156 149 -86 279 -158 289 -161
14 -4 28 13 64 74 25 43 46 83 46 88 0 6 -28 25 -63 44 -59 33 -358 206 -573
332 -55 32 -105 59 -110 59 -5 0 -68 -83 -141 -183z"/>
<path d="M8973 4633 c-127 -219 -173 -299 -248 -431 -51 -90 -86 -141 -96
-142 -9 0 -86 41 -171 90 -85 50 -159 90 -164 90 -13 0 -116 -181 -111 -194 3
-6 75 -51 162 -101 86 -49 159 -95 162 -101 2 -6 -21 -53 -51 -105 -38 -66
-51 -98 -44 -106 10 -12 131 -83 142 -83 2 0 30 45 61 100 31 55 59 100 63
100 3 0 67 -36 142 -79 369 -215 849 -490 859 -493 7 -2 40 44 73 101 l61 105
-42 80 c-46 91 -142 274 -218 416 -28 52 -85 163 -128 245 -43 83 -92 177
-110 210 -18 33 -64 121 -103 195 -66 126 -75 137 -121 163 -27 15 -53 27 -58
27 -5 0 -32 -39 -60 -87z m293 -615 c108 -216 205 -405 215 -420 43 -60 26
-54 -189 70 -103 60 -256 148 -339 196 -84 49 -153 93 -153 97 0 5 32 64 71
132 39 67 96 166 127 220 30 53 59 97 63 97 5 0 97 -177 205 -392z"/>
<path d="M23610 4494 c-190 -85 -383 -171 -430 -192 -47 -21 -86 -44 -88 -53
-1 -8 13 -49 33 -92 l36 -77 57 0 c79 -1 131 -27 183 -92 102 -129 122 -249
59 -366 -44 -82 -122 -153 -224 -202 -190 -91 -345 -65 -440 73 -38 55 -66
132 -66 183 0 17 7 55 16 84 13 43 29 66 77 113 l61 59 -34 64 c-19 35 -43 74
-52 86 -16 22 -18 22 -50 7 -55 -27 -133 -104 -166 -166 -132 -248 34 -641
318 -753 123 -48 286 -33 440 41 309 148 449 409 356 668 -40 109 -109 197
-205 259 -30 19 -49 38 -44 43 5 5 89 44 188 87 257 112 244 107 260 91 13
-13 81 -129 257 -436 39 -68 74 -123 78 -123 14 0 170 93 170 101 0 7 -232
414 -365 638 -33 58 -65 106 -71 107 -5 2 -164 -67 -354 -152z"/>
<path d="M7961 3455 c-169 -48 -314 -201 -372 -394 -18 -60 -21 -89 -16 -160
11 -174 98 -315 279 -449 58 -43 445 -270 551 -324 350 -176 659 -100 816 202
26 49 46 106 57 161 15 79 15 92 1 165 -23 114 -76 211 -163 299 -79 81 -154
132 -409 280 -331 191 -418 225 -585 231 -73 3 -121 -1 -159 -11z m272 -233
c43 -16 208 -106 369 -199 333 -192 405 -249 459 -359 29 -58 31 -71 27 -131
-6 -86 -39 -153 -105 -214 -58 -54 -106 -73 -188 -73 -108 -1 -196 35 -450
182 -71 41 -173 100 -225 130 -188 108 -291 197 -333 290 -68 150 26 348 193
403 50 17 171 3 253 -29z"/>
<path d="M24310 3393 c-50 -8 -186 -56 -250 -88 -78 -39 -466 -265 -530 -308
-71 -48 -193 -176 -230 -241 -39 -70 -70 -180 -70 -251 0 -186 138 -409 305
-491 170 -83 353 -67 585 51 110 56 431 241 512 296 128 87 227 200 276 315
25 61 44 171 37 216 -3 18 -8 49 -12 68 -8 50 -36 116 -76 185 -96 164 -257
257 -439 254 -46 -1 -94 -4 -108 -6z m281 -235 c130 -77 190 -236 139 -370
-25 -67 -103 -153 -195 -215 -99 -66 -555 -325 -625 -354 -212 -90 -376 -40
-457 138 -64 139 -10 291 143 404 29 21 120 78 201 125 81 48 189 110 238 139
129 75 248 133 308 150 80 23 194 15 248 -17z"/>
<path d="M15749 2670 c-1 -5 -3 -176 -4 -380 -1 -203 -3 -374 -4 -380 -1 -6
-73 -10 -196 -10 l-195 0 0 -120 0 -120 195 0 c166 0 195 -2 196 -15 1 -8 3
-55 4 -105 1 -49 3 -97 4 -105 1 -13 16 -15 89 -13 l87 3 3 117 3 118 582 2
582 3 0 123 0 124 -135 85 c-174 110 -519 328 -833 526 l-248 157 -64 0 c-36
0 -66 -4 -66 -10z m584 -504 c207 -135 381 -246 386 -246 6 0 13 -4 16 -10 4
-7 -132 -10 -399 -10 l-406 0 0 261 c0 216 2 260 14 256 7 -3 182 -116 389
-251z"/>
<path d="M15630 1154 c-212 -57 -341 -292 -310 -570 20 -184 94 -308 232 -389
105 -62 184 -80 343 -80 209 1 322 38 437 144 110 101 143 184 143 356 0 118
-1 121 -38 199 -20 43 -35 81 -32 84 3 3 56 1 118 -6 62 -6 159 -17 217 -22
58 -6 115 -15 128 -20 l22 -10 0 -330 0 -330 105 0 105 0 0 434 0 434 -47 6
c-142 19 -917 96 -921 92 -4 -5 -21 -134 -22 -172 0 -15 10 -26 31 -35 96 -39
131 -109 132 -259 1 -115 -12 -154 -73 -223 -69 -80 -235 -126 -381 -108 -140
18 -234 72 -284 162 -28 50 -30 61 -30 154 1 114 15 153 82 217 44 42 90 63
161 73 l52 7 0 104 0 104 -57 -1 c-32 0 -83 -7 -113 -15z"/></g></svg>
