<svg xmlns="http://www.w3.org/2000/svg" width="480" height="480" preserveAspectRatio="none"><g mask="url(&quot;#a&quot;)" fill="none"><g mask="url(&quot;#b&quot;)"><path d="m287.5 112.5 100 100h100" stroke-width="4.17" stroke="rgba(255, 255, 255, .2)"/><path d="M281.25 112.5a6.25 6.25 0 1 0 12.5 0 6.25 6.25 0 1 0-12.5 0zm200 100a6.25 6.25 0 1 0 12.5 0 6.25 6.25 0 1 0-12.5 0z" fill="rgba(255, 255, 255, .2)"/><path d="m462.5 187.5-175-175h-50l-25 25h-125l-75 75v25" stroke-width="4.17" stroke="rgba(255, 255, 255, .2)"/><path d="M456.25 187.5a6.25 6.25 0 1 0 12.5 0 6.25 6.25 0 1 0-12.5 0zm-450-50a6.25 6.25 0 1 0 12.5 0 6.25 6.25 0 1 0-12.5 0z" fill="rgba(255, 255, 255, .2)"/><path d="m287.5 37.5 150 150" stroke-width="4.17" stroke="rgba(255, 255, 255, .2)"/><path d="M281.25 37.5a6.25 6.25 0 1 0 12.5 0 6.25 6.25 0 1 0-12.5 0zm150 150a6.25 6.25 0 1 0 12.5 0 6.25 6.25 0 1 0-12.5 0z" fill="rgba(255, 255, 255, .2)"/><path d="m37.5 112.5 50-50h200l125 125" stroke-width="4.17" stroke="rgba(255, 255, 255, .2)"/><path d="M31.25 112.5a6.25 6.25 0 1 0 12.5 0 6.25 6.25 0 1 0-12.5 0zm375 75a6.25 6.25 0 1 0 12.5 0 6.25 6.25 0 1 0-12.5 0z" fill="rgba(255, 255, 255, .2)"/><path d="M387.5 487.5h100" stroke-width="4.17" stroke="rgba(255, 255, 255, .2)"/><path d="M381.25 487.5a6.25 6.25 0 1 0 12.5 0 6.25 6.25 0 1 0-12.5 0zm100 0a6.25 6.25 0 1 0 12.5 0 6.25 6.25 0 1 0-12.5 0z" fill="rgba(255, 255, 255, .2)"/><path d="m487.5 387.5-300-300h-100l-25 25v50" stroke-width="4.17" stroke="rgba(255, 255, 255, .2)"/><path d="M481.25 387.5a6.25 6.25 0 1 0 12.5 0 6.25 6.25 0 1 0-12.5 0zm-425-225a6.25 6.25 0 1 0 12.5 0 6.25 6.25 0 1 0-12.5 0z" fill="rgba(255, 255, 255, .2)"/><path d="m137.5 237.5 225 225v25" stroke-width="4.17" stroke="rgba(255, 255, 255, .2)"/><path d="M131.25 237.5a6.25 6.25 0 1 0 12.5 0 6.25 6.25 0 1 0-12.5 0zm225 250a6.25 6.25 0 1 0 12.5 0 6.25 6.25 0 1 0-12.5 0z" fill="rgba(255, 255, 255, .2)"/><path d="M387.5 337.5v-25l-200-200h-100" stroke-width="4.17" stroke="rgba(255, 255, 255, .2)"/><path d="M381.25 337.5a6.25 6.25 0 1 0 12.5 0 6.25 6.25 0 1 0-12.5 0zm-300-225a6.25 6.25 0 1 0 12.5 0 6.25 6.25 0 1 0-12.5 0z" fill="rgba(255, 255, 255, .2)"/><path d="M12.5 387.5v-175l25-25v-50" stroke-width="4.17" stroke="rgba(255, 255, 255, .2)"/><path d="M6.25 387.5a6.25 6.25 0 1 0 12.5 0 6.25 6.25 0 1 0-12.5 0zm25-250a6.25 6.25 0 1 0 12.5 0 6.25 6.25 0 1 0-12.5 0z" fill="rgba(255, 255, 255, .2)"/><path d="M412.5 87.5h-25l-25-25v-50" stroke-width="4.17" stroke="rgba(255, 255, 255, .2)"/><path d="M406.25 87.5a6.25 6.25 0 1 0 12.5 0 6.25 6.25 0 1 0-12.5 0zm-50-75a6.25 6.25 0 1 0 12.5 0 6.25 6.25 0 1 0-12.5 0z" fill="rgba(255, 255, 255, .2)"/><path d="M262.5 137.5v-50" stroke-width="4.17" stroke="rgba(255, 255, 255, .2)"/><path d="M256.25 137.5a6.25 6.25 0 1 0 12.5 0 6.25 6.25 0 1 0-12.5 0zm0-50a6.25 6.25 0 1 0 12.5 0 6.25 6.25 0 1 0-12.5 0z" fill="rgba(255, 255, 255, .2)"/><path d="M412.5 12.5h75" stroke-width="4.17" stroke="rgba(255, 255, 255, .2)"/><path d="M406.25 12.5a6.25 6.25 0 1 0 12.5 0 6.25 6.25 0 1 0-12.5 0zm75 0a6.25 6.25 0 1 0 12.5 0 6.25 6.25 0 1 0-12.5 0z" fill="rgba(255, 255, 255, .2)"/><path d="M62.5 412.5v-100l50-50h25l200 200v25" stroke-width="4.17" stroke="rgba(255, 255, 255, .2)"/><path d="M56.25 412.5a6.25 6.25 0 1 0 12.5 0 6.25 6.25 0 1 0-12.5 0zm275 75a6.25 6.25 0 1 0 12.5 0 6.25 6.25 0 1 0-12.5 0z" fill="rgba(255, 255, 255, .2)"/><path d="M162.5 437.5v-100l-50-50" stroke-width="4.17" stroke="rgba(255, 255, 255, .2)"/><path d="M156.25 437.5a6.25 6.25 0 1 0 12.5 0 6.25 6.25 0 1 0-12.5 0zm-50-150a6.25 6.25 0 1 0 12.5 0 6.25 6.25 0 1 0-12.5 0z" fill="rgba(255, 255, 255, .2)"/><path d="m337.5 212.5-50-50v-25" stroke-width="4.17" stroke="rgba(255, 255, 255, .2)"/><path d="M331.25 212.5a6.25 6.25 0 1 0 12.5 0 6.25 6.25 0 1 0-12.5 0zm-50-75a6.25 6.25 0 1 0 12.5 0 6.25 6.25 0 1 0-12.5 0z" fill="rgba(255, 255, 255, .2)"/><path d="m237.5 237.5 100 100v25l100 100h50" stroke-width="4.17" stroke="rgba(255, 255, 255, .2)"/><path d="M231.25 237.5a6.25 6.25 0 1 0 12.5 0 6.25 6.25 0 1 0-12.5 0zm250 225a6.25 6.25 0 1 0 12.5 0 6.25 6.25 0 1 0-12.5 0z" fill="rgba(255, 255, 255, .2)"/><path d="M187.5 487.5v-150" stroke-width="4.17" stroke="rgba(255, 255, 255, .2)"/><path d="M181.25 487.5a6.25 6.25 0 1 0 12.5 0 6.25 6.25 0 1 0-12.5 0zm0-150a6.25 6.25 0 1 0 12.5 0 6.25 6.25 0 1 0-12.5 0z" fill="rgba(255, 255, 255, .2)"/><path d="M112.5 362.5v25l25 25v75" stroke-width="4.17" stroke="rgba(255, 255, 255, .2)"/><path d="M106.25 362.5a6.25 6.25 0 1 0 12.5 0 6.25 6.25 0 1 0-12.5 0zm25 125a6.25 6.25 0 1 0 12.5 0 6.25 6.25 0 1 0-12.5 0z" fill="rgba(255, 255, 255, .2)"/><path d="M137.5 387.5v-50l-25-25h-25" stroke-width="4.17" stroke="rgba(255, 255, 255, .2)"/><path d="M131.25 387.5a6.25 6.25 0 1 0 12.5 0 6.25 6.25 0 1 0-12.5 0zm-50-75a6.25 6.25 0 1 0 12.5 0 6.25 6.25 0 1 0-12.5 0z" fill="rgba(255, 255, 255, .2)"/><path d="M287.5 237.5h-25l-100-100h-50l-75 75v225" stroke-width="4.17" stroke="rgba(255, 255, 255, .2)"/><path d="M281.25 237.5a6.25 6.25 0 1 0 12.5 0 6.25 6.25 0 1 0-12.5 0zm-250 200a6.25 6.25 0 1 0 12.5 0 6.25 6.25 0 1 0-12.5 0z" fill="rgba(255, 255, 255, .2)"/><path d="M137.5 12.5h-125" stroke-width="4.17" stroke="rgba(255, 255, 255, .2)"/><path d="M131.25 12.5a6.25 6.25 0 1 0 12.5 0 6.25 6.25 0 1 0-12.5 0zm-125 0a6.25 6.25 0 1 0 12.5 0 6.25 6.25 0 1 0-12.5 0z" fill="rgba(255, 255, 255, .2)"/><path d="m437.5 362.5 50 50v25" stroke-width="4.17" stroke="rgba(255, 255, 255, .2)"/><path d="M431.25 362.5a6.25 6.25 0 1 0 12.5 0 6.25 6.25 0 1 0-12.5 0zm50 75a6.25 6.25 0 1 0 12.5 0 6.25 6.25 0 1 0-12.5 0z" fill="rgba(255, 255, 255, .2)"/><path d="M212.5 212.5v75l175 175h25" stroke-width="4.17" stroke="rgba(255, 255, 255, .2)"/><path d="M206.25 212.5a6.25 6.25 0 1 0 12.5 0 6.25 6.25 0 1 0-12.5 0zm200 250a6.25 6.25 0 1 0 12.5 0 6.25 6.25 0 1 0-12.5 0z" fill="rgba(255, 255, 255, .2)"/><path d="M112.5 162.5h50l25 25v75" stroke-width="4.17" stroke="rgba(255, 255, 255, .2)"/><path d="M106.25 162.5a6.25 6.25 0 1 0 12.5 0 6.25 6.25 0 1 0-12.5 0zm75 100a6.25 6.25 0 1 0 12.5 0 6.25 6.25 0 1 0-12.5 0z" fill="rgba(255, 255, 255, .2)"/><path d="M62.5 212.5v75" stroke-width="4.17" stroke="rgba(255, 255, 255, .2)"/><path d="M56.25 212.5a6.25 6.25 0 1 0 12.5 0 6.25 6.25 0 1 0-12.5 0zm0 75a6.25 6.25 0 1 0 12.5 0 6.25 6.25 0 1 0-12.5 0z" fill="rgba(255, 255, 255, .2)"/><path d="M362.5 362.5h50l50 50v25" stroke-width="4.17" stroke="rgba(255, 255, 255, .2)"/><path d="M356.25 362.5a6.25 6.25 0 1 0 12.5 0 6.25 6.25 0 1 0-12.5 0zm100 75a6.25 6.25 0 1 0 12.5 0 6.25 6.25 0 1 0-12.5 0z" fill="rgba(255, 255, 255, .2)"/><path d="M437.5 37.5h-50" stroke-width="4.17" stroke="rgba(255, 255, 255, .2)"/><path d="M431.25 37.5a6.25 6.25 0 1 0 12.5 0 6.25 6.25 0 1 0-12.5 0zm-50 0a6.25 6.25 0 1 0 12.5 0 6.25 6.25 0 1 0-12.5 0z" fill="rgba(255, 255, 255, .2)"/><path d="M62.5 462.5h-50" stroke-width="4.17" stroke="rgba(255, 255, 255, .2)"/><path d="M56.25 462.5a6.25 6.25 0 1 0 12.5 0 6.25 6.25 0 1 0-12.5 0zm-50 0a6.25 6.25 0 1 0 12.5 0 6.25 6.25 0 1 0-12.5 0z" fill="rgba(255, 255, 255, .2)"/><path d="M212.5 487.5v-50l25-25h25l50 50v25" stroke-width="4.17" stroke="rgba(255, 255, 255, .2)"/><path d="M206.25 487.5a6.25 6.25 0 1 0 12.5 0 6.25 6.25 0 1 0-12.5 0zm100 0a6.25 6.25 0 1 0 12.5 0 6.25 6.25 0 1 0-12.5 0z" fill="rgba(255, 255, 255, .2)"/><path d="M487.5 137.5v50" stroke-width="4.17" stroke="rgba(255, 255, 255, .2)"/><path d="M481.25 137.5a6.25 6.25 0 1 0 12.5 0 6.25 6.25 0 1 0-12.5 0zm0 50a6.25 6.25 0 1 0 12.5 0 6.25 6.25 0 1 0-12.5 0z" fill="rgba(255, 255, 255, .2)"/><path d="m237.5 287.5 75 75" stroke-width="4.17" stroke="rgba(255, 255, 255, .2)"/><path d="M231.25 287.5a6.25 6.25 0 1 0 12.5 0 6.25 6.25 0 1 0-12.5 0zm75 75a6.25 6.25 0 1 0 12.5 0 6.25 6.25 0 1 0-12.5 0z" fill="rgba(255, 255, 255, .2)"/><path d="m487.5 112.5-25-25v-25l25-25" stroke-width="4.17" stroke="rgba(255, 255, 255, .2)"/><path d="M481.25 112.5a6.25 6.25 0 1 0 12.5 0 6.25 6.25 0 1 0-12.5 0zm0-75a6.25 6.25 0 1 0 12.5 0 6.25 6.25 0 1 0-12.5 0z" fill="rgba(255, 255, 255, .2)"/><path d="m137.5 212.5-25 25h-25" stroke-width="4.17" stroke="rgba(255, 255, 255, .2)"/><path d="M131.25 212.5a6.25 6.25 0 1 0 12.5 0 6.25 6.25 0 1 0-12.5 0zm-50 25a6.25 6.25 0 1 0 12.5 0 6.25 6.25 0 1 0-12.5 0z" fill="rgba(255, 255, 255, .2)"/><path d="m287.5 262.5 25 25h25" stroke-width="4.17" stroke="rgba(255, 255, 255, .2)"/><path d="M281.25 262.5a6.25 6.25 0 1 0 12.5 0 6.25 6.25 0 1 0-12.5 0zm50 25a6.25 6.25 0 1 0 12.5 0 6.25 6.25 0 1 0-12.5 0z" fill="rgba(255, 255, 255, .2)"/><path d="M87.5 487.5v-50" stroke-width="4.17" stroke="rgba(255, 255, 255, .2)"/><path d="M81.25 487.5a6.25 6.25 0 1 0 12.5 0 6.25 6.25 0 1 0-12.5 0zm0-50a6.25 6.25 0 1 0 12.5 0 6.25 6.25 0 1 0-12.5 0z" fill="rgba(255, 255, 255, .2)"/><path d="M487.5 262.5v50" stroke-width="4.17" stroke="rgba(255, 255, 255, .2)"/><path d="M481.25 262.5a6.25 6.25 0 1 0 12.5 0 6.25 6.25 0 1 0-12.5 0zm0 50a6.25 6.25 0 1 0 12.5 0 6.25 6.25 0 1 0-12.5 0z" fill="rgba(255, 255, 255, .2)"/><path d="M12.5 37.5h50" stroke-width="4.17" stroke="rgba(255, 255, 255, .2)"/><path d="M6.25 37.5a6.25 6.25 0 1 0 12.5 0 6.25 6.25 0 1 0-12.5 0zm50 0a6.25 6.25 0 1 0 12.5 0 6.25 6.25 0 1 0-12.5 0z" fill="rgba(255, 255, 255, .2)"/><path d="M287.5 487.5v-25l-25-25h-25" stroke-width="4.17" stroke="rgba(255, 255, 255, .2)"/><path d="M281.25 487.5a6.25 6.25 0 1 0 12.5 0 6.25 6.25 0 1 0-12.5 0zm-50-50a6.25 6.25 0 1 0 12.5 0 6.25 6.25 0 1 0-12.5 0z" fill="rgba(255, 255, 255, .2)"/><path d="M437.5 262.5v50" stroke-width="4.17" stroke="rgba(255, 255, 255, .2)"/><path d="M431.25 262.5a6.25 6.25 0 1 0 12.5 0 6.25 6.25 0 1 0-12.5 0zm0 50a6.25 6.25 0 1 0 12.5 0 6.25 6.25 0 1 0-12.5 0z" fill="rgba(255, 255, 255, .2)"/><path d="M412.5 237.5v50" stroke-width="4.17" stroke="rgba(255, 255, 255, .2)"/><path d="M406.25 237.5a6.25 6.25 0 1 0 12.5 0 6.25 6.25 0 1 0-12.5 0zm0 50a6.25 6.25 0 1 0 12.5 0 6.25 6.25 0 1 0-12.5 0z" fill="rgba(255, 255, 255, .2)"/></g></g><defs><mask id="a"><path fill="#fff" d="M0 0h480v480H0z"/></mask><mask id="b"><path fill="#fff" d="M0 0h480v480H0z"/><path d="M284.37 112.5a3.13 3.13 0 1 0 6.26 0 3.13 3.13 0 1 0-6.26 0zm200 100a3.13 3.13 0 1 0 6.26 0 3.13 3.13 0 1 0-6.26 0zM459.37 187.5a3.13 3.13 0 1 0 6.26 0 3.13 3.13 0 1 0-6.26 0zm-450-50a3.13 3.13 0 1 0 6.26 0 3.13 3.13 0 1 0-6.26 0zM284.37 37.5a3.13 3.13 0 1 0 6.26 0 3.13 3.13 0 1 0-6.26 0zm150 150a3.13 3.13 0 1 0 6.26 0 3.13 3.13 0 1 0-6.26 0zM34.37 112.5a3.13 3.13 0 1 0 6.26 0 3.13 3.13 0 1 0-6.26 0zm375 75a3.13 3.13 0 1 0 6.26 0 3.13 3.13 0 1 0-6.26 0zM384.37 487.5a3.13 3.13 0 1 0 6.26 0 3.13 3.13 0 1 0-6.26 0zm100 0a3.13 3.13 0 1 0 6.26 0 3.13 3.13 0 1 0-6.26 0zM484.37 387.5a3.13 3.13 0 1 0 6.26 0 3.13 3.13 0 1 0-6.26 0zm-425-225a3.13 3.13 0 1 0 6.26 0 3.13 3.13 0 1 0-6.26 0zM134.37 237.5a3.13 3.13 0 1 0 6.26 0 3.13 3.13 0 1 0-6.26 0zm225 250a3.13 3.13 0 1 0 6.26 0 3.13 3.13 0 1 0-6.26 0zM384.37 337.5a3.13 3.13 0 1 0 6.26 0 3.13 3.13 0 1 0-6.26 0zm-300-225a3.13 3.13 0 1 0 6.26 0 3.13 3.13 0 1 0-6.26 0zM9.37 387.5a3.13 3.13 0 1 0 6.26 0 3.13 3.13 0 1 0-6.26 0zm25-250a3.13 3.13 0 1 0 6.26 0 3.13 3.13 0 1 0-6.26 0zM409.37 87.5a3.13 3.13 0 1 0 6.26 0 3.13 3.13 0 1 0-6.26 0zm-50-75a3.13 3.13 0 1 0 6.26 0 3.13 3.13 0 1 0-6.26 0zM259.37 137.5a3.13 3.13 0 1 0 6.26 0 3.13 3.13 0 1 0-6.26 0zm0-50a3.13 3.13 0 1 0 6.26 0 3.13 3.13 0 1 0-6.26 0zM409.37 12.5a3.13 3.13 0 1 0 6.26 0 3.13 3.13 0 1 0-6.26 0zm75 0a3.13 3.13 0 1 0 6.26 0 3.13 3.13 0 1 0-6.26 0zM59.37 412.5a3.13 3.13 0 1 0 6.26 0 3.13 3.13 0 1 0-6.26 0zm275 75a3.13 3.13 0 1 0 6.26 0 3.13 3.13 0 1 0-6.26 0zM159.37 437.5a3.13 3.13 0 1 0 6.26 0 3.13 3.13 0 1 0-6.26 0zm-50-150a3.13 3.13 0 1 0 6.26 0 3.13 3.13 0 1 0-6.26 0zM334.37 212.5a3.13 3.13 0 1 0 6.26 0 3.13 3.13 0 1 0-6.26 0zm-50-75a3.13 3.13 0 1 0 6.26 0 3.13 3.13 0 1 0-6.26 0zM234.37 237.5a3.13 3.13 0 1 0 6.26 0 3.13 3.13 0 1 0-6.26 0zm250 225a3.13 3.13 0 1 0 6.26 0 3.13 3.13 0 1 0-6.26 0zM184.37 487.5a3.13 3.13 0 1 0 6.26 0 3.13 3.13 0 1 0-6.26 0zm0-150a3.13 3.13 0 1 0 6.26 0 3.13 3.13 0 1 0-6.26 0zM109.37 362.5a3.13 3.13 0 1 0 6.26 0 3.13 3.13 0 1 0-6.26 0zm25 125a3.13 3.13 0 1 0 6.26 0 3.13 3.13 0 1 0-6.26 0zM134.37 387.5a3.13 3.13 0 1 0 6.26 0 3.13 3.13 0 1 0-6.26 0zm-50-75a3.13 3.13 0 1 0 6.26 0 3.13 3.13 0 1 0-6.26 0zM284.37 237.5a3.13 3.13 0 1 0 6.26 0 3.13 3.13 0 1 0-6.26 0zm-250 200a3.13 3.13 0 1 0 6.26 0 3.13 3.13 0 1 0-6.26 0zM134.37 12.5a3.13 3.13 0 1 0 6.26 0 3.13 3.13 0 1 0-6.26 0zm-125 0a3.13 3.13 0 1 0 6.26 0 3.13 3.13 0 1 0-6.26 0zM434.37 362.5a3.13 3.13 0 1 0 6.26 0 3.13 3.13 0 1 0-6.26 0zm50 75a3.13 3.13 0 1 0 6.26 0 3.13 3.13 0 1 0-6.26 0zM209.37 212.5a3.13 3.13 0 1 0 6.26 0 3.13 3.13 0 1 0-6.26 0zm200 250a3.13 3.13 0 1 0 6.26 0 3.13 3.13 0 1 0-6.26 0zM109.37 162.5a3.13 3.13 0 1 0 6.26 0 3.13 3.13 0 1 0-6.26 0zm75 100a3.13 3.13 0 1 0 6.26 0 3.13 3.13 0 1 0-6.26 0zM59.37 212.5a3.13 3.13 0 1 0 6.26 0 3.13 3.13 0 1 0-6.26 0zm0 75a3.13 3.13 0 1 0 6.26 0 3.13 3.13 0 1 0-6.26 0zM359.37 362.5a3.13 3.13 0 1 0 6.26 0 3.13 3.13 0 1 0-6.26 0zm100 75a3.13 3.13 0 1 0 6.26 0 3.13 3.13 0 1 0-6.26 0zM434.37 37.5a3.13 3.13 0 1 0 6.26 0 3.13 3.13 0 1 0-6.26 0zm-50 0a3.13 3.13 0 1 0 6.26 0 3.13 3.13 0 1 0-6.26 0zM59.37 462.5a3.13 3.13 0 1 0 6.26 0 3.13 3.13 0 1 0-6.26 0zm-50 0a3.13 3.13 0 1 0 6.26 0 3.13 3.13 0 1 0-6.26 0zM209.37 487.5a3.13 3.13 0 1 0 6.26 0 3.13 3.13 0 1 0-6.26 0zm100 0a3.13 3.13 0 1 0 6.26 0 3.13 3.13 0 1 0-6.26 0zM484.37 137.5a3.13 3.13 0 1 0 6.26 0 3.13 3.13 0 1 0-6.26 0zm0 50a3.13 3.13 0 1 0 6.26 0 3.13 3.13 0 1 0-6.26 0zM234.37 287.5a3.13 3.13 0 1 0 6.26 0 3.13 3.13 0 1 0-6.26 0zm75 75a3.13 3.13 0 1 0 6.26 0 3.13 3.13 0 1 0-6.26 0zM484.37 112.5a3.13 3.13 0 1 0 6.26 0 3.13 3.13 0 1 0-6.26 0zm0-75a3.13 3.13 0 1 0 6.26 0 3.13 3.13 0 1 0-6.26 0zM134.37 212.5a3.13 3.13 0 1 0 6.26 0 3.13 3.13 0 1 0-6.26 0zm-50 25a3.13 3.13 0 1 0 6.26 0 3.13 3.13 0 1 0-6.26 0zM284.37 262.5a3.13 3.13 0 1 0 6.26 0 3.13 3.13 0 1 0-6.26 0zm50 25a3.13 3.13 0 1 0 6.26 0 3.13 3.13 0 1 0-6.26 0zM84.37 487.5a3.13 3.13 0 1 0 6.26 0 3.13 3.13 0 1 0-6.26 0zm0-50a3.13 3.13 0 1 0 6.26 0 3.13 3.13 0 1 0-6.26 0zM484.37 262.5a3.13 3.13 0 1 0 6.26 0 3.13 3.13 0 1 0-6.26 0zm0 50a3.13 3.13 0 1 0 6.26 0 3.13 3.13 0 1 0-6.26 0zM9.37 37.5a3.13 3.13 0 1 0 6.26 0 3.13 3.13 0 1 0-6.26 0zm50 0a3.13 3.13 0 1 0 6.26 0 3.13 3.13 0 1 0-6.26 0zM284.37 487.5a3.13 3.13 0 1 0 6.26 0 3.13 3.13 0 1 0-6.26 0zm-50-50a3.13 3.13 0 1 0 6.26 0 3.13 3.13 0 1 0-6.26 0zM434.37 262.5a3.13 3.13 0 1 0 6.26 0 3.13 3.13 0 1 0-6.26 0zm0 50a3.13 3.13 0 1 0 6.26 0 3.13 3.13 0 1 0-6.26 0zM409.37 237.5a3.13 3.13 0 1 0 6.26 0 3.13 3.13 0 1 0-6.26 0zm0 50a3.13 3.13 0 1 0 6.26 0 3.13 3.13 0 1 0-6.26 0z"/></mask></defs></svg>